#N canvas 155 104 1005 578 10;
#X text 197 46 coordinate input;
#X text 111 70 x;
#X text 271 70 y;
#X text 414 70 z;
#X obj 62 69 inlet;
#X obj 222 69 inlet;
#X obj 365 69 inlet;
#X obj 542 69 inlet;
#X obj 208 371 *;
#X obj 240 371 *;
#X obj 338 371 *;
#X obj 370 371 *;
#X obj 62 470 outlet;
#X obj 208 470 outlet;
#X obj 338 470 outlet;
#X text 544 48 rotation angles in radians;
#X obj 607 241 sin;
#X obj 542 241 cos;
#X obj 542 201 t f f;
#X obj 62 101 t f b b;
#X obj 565 150 loadbang;
#X obj 208 173 t f f;
#X obj 347 173 t f f b;
#X text 470 438 function scope3d:rotate_x(vertex \, angle) \; local x \, y \, z = table.unpack(vertex) \; local cosTheta = math.cos(angle * math.pi / 180) \; local sinTheta = math.sin(angle * math.pi / 180) \; local newY = y * cosTheta - z * sinTheta \; local newZ = y * sinTheta + z * cosTheta \; return x \, newY \, newZ \; end;
#X text 587 68 x-rotation;
#X text 813 476 Ben Wesch \, 2024;
#X obj 208 392 -;
#X obj 347 149 f;
#X obj 208 149 f;
#X obj 565 174 f;
#X obj 338 392 +;
#X connect 4 0 19 0;
#X connect 5 0 28 1;
#X connect 6 0 27 1;
#X connect 7 0 18 0;
#X connect 8 0 26 0;
#X connect 9 0 26 1;
#X connect 10 0 30 0;
#X connect 11 0 30 1;
#X connect 16 0 9 1;
#X connect 16 0 10 1;
#X connect 17 0 8 1;
#X connect 17 0 11 1;
#X connect 18 0 17 0;
#X connect 18 1 16 0;
#X connect 19 0 12 0;
#X connect 19 1 28 0;
#X connect 19 2 27 0;
#X connect 20 0 29 0;
#X connect 21 0 8 0;
#X connect 21 1 10 0;
#X connect 22 0 9 0;
#X connect 22 1 11 0;
#X connect 26 0 13 0;
#X connect 27 0 22 0;
#X connect 28 0 21 0;
#X connect 29 0 18 0;
#X connect 30 0 14 0;
