#N canvas 92 117 1280 869 10;
#X text 166 49 coordinate input;
#X text 541 549 Axx;
#X text 577 549 Axy;
#X text 612 549 Axz;
#X text 652 549 Ayx;
#X text 688 549 Ayy;
#X text 724 549 Ayz;
#X text 761 549 Azx;
#X text 801 549 Azy;
#X text 834 549 Azz;
#X text 111 70 x;
#X text 275 70 y;
#X text 414 70 z;
#X text 1131 742 Ben Wesch \, 2023;
#X text 741 741 based on https://stackoverflow.com/a/34060479;
#X text 895 68 z;
#X text 739 68 y;
#X text 587 68 x;
#X obj 62 69 inlet;
#X obj 226 69 inlet;
#X obj 365 69 inlet;
#X obj 542 69 inlet;
#X obj 846 69 inlet;
#X obj 694 69 inlet;
#X obj 62 701 *;
#X obj 94 701 *;
#X obj 126 701 *;
#X obj 199 701 *;
#X obj 231 701 *;
#X obj 263 701 *;
#X obj 329 701 *;
#X obj 361 701 *;
#X obj 393 701 *;
#X obj 62 734 +;
#X obj 62 766 +;
#X obj 199 734 +;
#X obj 199 766 +;
#X obj 329 734 +;
#X obj 329 766 +;
#X obj 62 800 outlet;
#X obj 199 800 outlet;
#X obj 329 800 outlet;
#X text 663 44 rotation angles in radians;
#X obj 911 315 v sina\$0;
#X obj 911 291 sin;
#X obj 846 291 cos;
#X obj 846 315 v cosa\$0;
#X obj 759 291 sin;
#X obj 694 291 cos;
#X obj 759 315 v sinb\$0;
#X obj 694 315 v cosb\$0;
#X obj 607 291 sin;
#X obj 542 291 cos;
#X obj 607 315 v sinc\$0;
#X obj 542 315 v cosc\$0;
#X text 918 251 FIXME: make heavy compiler compatible?;
#X obj 208 173 t f f f;
#X obj 542 251 t f f;
#X obj 694 251 t f f;
#X obj 846 251 t f f;
#X obj 347 173 t f f f b;
#X obj 62 173 t f f f;
#X obj 62 101 t f b b;
#X obj 885 150 loadbang;
#X obj 885 174 f 0;
#X obj 208 149 f 0;
#X obj 347 149 f 0;
#X obj 542 414 expr cosa\$0 * cosb\$0 \; cosa\$0 * sinb\$0 * sinc\$0 - sina\$0 * cosc\$0 \; cosa\$0 * sinb\$0 * cosc\$0 + sina\$0 * sinc\$0 \; sina\$0 * cosb\$0 \; sina\$0 * sinb\$0 * sinc\$0 + cosa\$0 * cosc\$0 \; sina\$0 * sinb\$0 * cosc\$0 - cosa\$0 * sinc\$0 \; -sinb\$0 \; cosb\$0 * sinc\$0 \; cosb\$0 * cosc\$0 \;;
#X connect 18 0 62 0;
#X connect 19 0 65 1;
#X connect 20 0 66 1;
#X connect 21 0 57 0;
#X connect 22 0 59 0;
#X connect 23 0 58 0;
#X connect 24 0 33 0;
#X connect 25 0 33 1;
#X connect 26 0 34 1;
#X connect 27 0 35 0;
#X connect 28 0 35 1;
#X connect 29 0 36 1;
#X connect 30 0 37 0;
#X connect 31 0 37 1;
#X connect 32 0 38 1;
#X connect 33 0 34 0;
#X connect 34 0 39 0;
#X connect 35 0 36 0;
#X connect 36 0 40 0;
#X connect 37 0 38 0;
#X connect 38 0 41 0;
#X connect 44 0 43 0;
#X connect 45 0 46 0;
#X connect 47 0 49 0;
#X connect 48 0 50 0;
#X connect 51 0 53 0;
#X connect 52 0 54 0;
#X connect 56 0 25 0;
#X connect 56 1 28 0;
#X connect 56 2 31 0;
#X connect 57 0 52 0;
#X connect 57 1 51 0;
#X connect 58 0 48 0;
#X connect 58 1 47 0;
#X connect 59 0 45 0;
#X connect 59 1 44 0;
#X connect 60 0 26 0;
#X connect 60 1 29 0;
#X connect 60 2 32 0;
#X connect 60 3 67 0;
#X connect 61 0 24 0;
#X connect 61 1 27 0;
#X connect 61 2 30 0;
#X connect 62 0 61 0;
#X connect 62 1 65 0;
#X connect 62 2 66 0;
#X connect 63 0 64 0;
#X connect 64 0 59 0;
#X connect 64 0 58 0;
#X connect 64 0 57 0;
#X connect 65 0 56 0;
#X connect 66 0 60 0;
#X connect 67 0 24 1;
#X connect 67 1 25 1;
#X connect 67 2 26 1;
#X connect 67 3 27 1;
#X connect 67 4 28 1;
#X connect 67 5 29 1;
#X connect 67 6 30 1;
#X connect 67 7 31 1;
#X connect 67 8 32 1;
