#N canvas 154 91 356 132 10;
#X text 12 18 AUTHOR Ben Wesch;
#X text 12 38 DESCRIPTION external for signal and control rate simplex noise sampling with 1d \, 2d \, 3d and 4d input., f 52;
#X text 12 90 LICENSE Unlicense;
#X text 12 69 VERSION 0.4.2, f 52;
