#N canvas 475 38 1063 882 10;
#X declare -path simplex~;
#X obj 1 1 cnv 16 1060 48 empty empty empty 20 12 0 10 #f0f0f0 #404040 0;
#X obj 78 652 r \$0-in1;
#X obj 1 239 cnv 16 1060 150 empty empty empty 20 12 0 10 #f5f5f5 #404040 0;
#X msg 792 131 normalize 1;
#X msg 856 154 seed;
#X text 363 108 additional numerical argument sets persistence (default: 0.5), f 61;
#X text 28 61 INLETS / OUTLET;
#X msg 792 108 persistence 0.4;
#X msg 792 85 octaves 5;
#X msg 792 154 seed 711;
#X msg 792 177 coeffs 1 3 5;
#X text 382 131 -n flag activates normalization (default: off);
#X text 418 154 -s <int> flag initializes seed for permutation table (default: random value);
#X text 340 85 single numerical argument sets octave count (default: 1 \, max: 1024), f 67;
#X text 868 131 1:on / 0:off;
#X text 891 154 seed or random reseed;
#X text 873 177 custom octave coefficients;
#X text 237 210 <--;
#X text 790 61 MESSAGES;
#X text 274 61 CREATION ARGS;
#X obj 164 419 cnv 16 112 16 empty empty empty 20 12 0 10 #ddeeff #404040 0;
#X obj 171 440 cnv 16 28 16 empty empty empty 20 12 0 10 #ddeeff #404040 0;
#X obj 208 440 cnv 16 46 16 empty empty empty 20 12 0 10 #ddeeff #404040 0;
#X obj 300 419 tgl 16 0 empty empty normalize 0 -8 0 10 #ddeeff #4d4d4d #373737 0 1;
#X msg 300 440 normalize \$1;
#X msg 31 440 octaves \$1;
#X obj 402 419 hsl 102 16 0 1 0 1 empty empty persistence\ (0..1) -2 -8 0 10 #ddeeff #000000 #000000 4400 1;
#N canvas 150 175 449 300 octaves 0;
#X obj 100 100 hradio 16 1 0 7 empty empty octaves\ (1..7) 0 -8 0 10 #ddeeff #000000 #000000 0;
#X obj 100 123 + 1;
#X obj 100 144 outlet;
#X obj 100 27 loadbang;
#X msg 100 48 2;
#X connect 0 0 1 0;
#X connect 1 0 2 0;
#X connect 3 0 4 0;
#X connect 4 0 0 0;
#X coords 0 -1 1 1 112 16 2 100 100;
#X restore 31 419 pd octaves;
#X msg 164 419 coeffs 0.4 0.5 4 5;
#X msg 171 440 seed;
#X msg 208 440 seed 45;
#X text 161 403 custom octaves/seed;
#X obj 164 461 s \$0-in1;
#X obj 31 461 s \$0-in1;
#X obj 300 461 s \$0-in1;
#X text 374 317 Below are visualizations for noises of different dimensionalities and a simple audio experiment that scans the noise space in a circular motion., f 48;
#X text 29 251 Simplex noise is a deterministic and gradient noise function \, meaning it consistently generates the same value for a given input coordinate and produces continuous values for continuous coordinates., f 52;
#X text 29 306 In visual applications \, these properties enable the generation of landscapes using 2D noise for heightmaps \, with animation possible via a 3rd dimension. 3D noise can also be used to create cave systems \, clouds \, or sponge structures in real-time \, without needing to precalculate scene data., f 52;
#X text 374 251 The continuity of values is ideal for audio applications \, and their deterministic nature allows for reproducible musical elements or easy variation by resetting the permutation table with another random seed., f 48;
#X text 37 85 1st inlet -;
#X text 31 154 1st outlet -;
#X text 31 210 2nd outlet -;
#N canvas 442 420 415 219 META 0;
#X text 12 18 AUTHOR Ben Wesch;
#X text 12 181 LICENSE Unlicense;
#X text 12 38 DESCRIPTION external for signal rate simplex noise sampling with 1d \, 2d \, 3d and 4d multichannel input., f 51;
#X text 12 149 KEYWORDS deterministic noise \, gradient noise \, noise \, perlin noise \, simplex noise \, scan \, scanned synthesis \, 1d \, 2d \, 3d \, 4d, f 61;
#X text 12 69 INLET_0 multichannel coordinate signal \, msg;
#X text 12 89 INLET_1 persistence signal;
#X text 12 109 OUTLET_0 sampled noise signal;
#X text 12 129 OUTLET_1 optional multichannel derivatives signal;
#X restore 987 18 pd META;
#X msg 94 538 1;
#X floatatom 57 538 5 0 0 0 - - - 0;
#X msg 217 538 1 4 2 5;
#X msg 274 538 1 2 3 4 5;
#X msg 344 538 1 2 3 4 5 6 7 8;
#X msg 166 538 3 2 \$1;
#X floatatom 166 518 5 0 0 0 - - - 0;
#X msg 127 538 \$1 2;
#X floatatom 127 518 5 0 0 0 - - - 0;
#X floatatom 451 518 5 0 0 0 - - - 0;
#X obj 31 668 t a;
#X text 344 209 -d flag activates output of derivatives on 2nd outlet;
#X obj 31 18 simplex;
#X text 91 18 External for data rate simplex noise sampling with 1d to 4d multichannel input, f 78;
#X text 112 85 list for sampling position (1d to 4d) \, messages, f 21;
#X text 111 210 derivatives list;
#N canvas 0 22 450 278 (subpatch) 0;
#X array \$0-vis 400 float 0;
#X coords 0 1 399 -1 400 180 1 0 0;
#X restore 237 652 graph;
#X obj 661 669 until;
#X obj 399 461 s \$0-in1;
#X obj 661 585 tgl 16 1 empty empty empty 0 -8 0 10 #fcfcfc #000000 #000000 1 1;
#X obj 661 690 f;
#X obj 688 690 + 1;
#X obj 661 711 t f f;
#X obj 661 816 tabwrite \$0-vis;
#X msg 700 669 0;
#X obj 661 753 +;
#X msg 661 648 400;
#X msg 399 440 persistence \$1;
#X obj 31 816 print;
#X obj 106 816 print derivatives;
#X obj 31 795 simplex -n -d;
#X obj 745 779 r \$0-in1;
#X obj 31 538 bng 16 250 50 0 empty empty empty 0 -8 0 10 #fcfcfc #000000 #000000;
#X obj 661 774 pack f f f;
#X obj 846 18 declare -path simplex~;
#X obj 661 795 simplex 3;
#X obj 679 517 hsl 102 16 0 1 0 0 empty empty x\ offset -2 -8 0 10 #fcfcfc #000000 #000000 0 1;
#X floatatom 676 538 5 0 0 0 - - - 0;
#X obj 792 517 hsl 102 16 0 1 0 0 empty empty y\ offset -2 -8 0 10 #fcfcfc #000000 #000000 0 1;
#X obj 905 517 hsl 102 16 0 1 0 0 empty empty z\ offset -2 -8 0 10 #fcfcfc #000000 #000000 0 1;
#X floatatom 789 538 5 0 0 0 - - - 0;
#X floatatom 902 538 5 0 0 0 - - - 0;
#X obj 661 627 t b b;
#X obj 661 606 metro 20;
#X msg 451 538 \$1 err 3 \, \$1 0 3;
#X obj 277 85 simplex 3;
#X obj 277 108 simplex 3 0.7;
#X obj 277 131 simplex -n 3 0.7;
#X obj 277 154 simplex -s 42 -n 3 0.7;
#X obj 277 209 simplex -d;
#X text 111 154 sampled noise value;
#X obj 661 732 / 400;
#X connect 1 0 53 0;
#X connect 23 0 24 0;
#X connect 24 0 34 0;
#X connect 25 0 33 0;
#X connect 26 0 70 0;
#X connect 27 0 25 0;
#X connect 28 0 32 0;
#X connect 29 0 32 0;
#X connect 30 0 32 0;
#X connect 43 0 53 0;
#X connect 44 0 53 0;
#X connect 45 0 53 0;
#X connect 46 0 53 0;
#X connect 47 0 53 0;
#X connect 48 0 53 0;
#X connect 49 0 48 0;
#X connect 50 0 53 0;
#X connect 51 0 50 0;
#X connect 52 0 87 0;
#X connect 53 0 73 0;
#X connect 60 0 63 0;
#X connect 62 0 86 0;
#X connect 63 0 64 0;
#X connect 63 0 65 0;
#X connect 64 0 63 1;
#X connect 65 0 94 0;
#X connect 65 1 66 1;
#X connect 67 0 63 1;
#X connect 68 0 76 0;
#X connect 69 0 60 0;
#X connect 70 0 61 0;
#X connect 73 0 71 0;
#X connect 73 1 72 0;
#X connect 74 0 78 0;
#X connect 75 0 53 0;
#X connect 76 0 78 0;
#X connect 78 0 66 0;
#X connect 79 0 80 0;
#X connect 80 0 68 1;
#X connect 81 0 83 0;
#X connect 82 0 84 0;
#X connect 83 0 76 1;
#X connect 84 0 76 2;
#X connect 85 0 69 0;
#X connect 85 1 67 0;
#X connect 86 0 85 0;
#X connect 87 0 53 0;
#X connect 94 0 68 0;
