#N canvas 719 335 402 479 12;
#X obj 79 267 *~ -1;
#X obj 54 315 min~;
#X obj 79 291 +~ 1;
#X obj 54 339 *~ 4;
#X obj 54 363 -~ 1;
#X obj 54 199 phasor~;
#X obj 54 407 outlet~;
#X obj 54 127 inlet~;
#X obj 54 223 wrap~;
#X obj 54 79 loadbang;
#X obj 54 103 f \$1;
#X obj 111 127 inlet;
#X connect 0 0 2 0;
#X connect 1 0 3 0;
#X connect 2 0 1 1;
#X connect 3 0 4 0;
#X connect 4 0 6 0;
#X connect 5 0 8 0;
#X connect 7 0 5 0;
#X connect 8 0 1 0;
#X connect 8 0 0 0;
#X connect 9 0 10 0;
#X connect 10 0 7 0;
#X connect 11 0 5 1;
