#N canvas 214 86 516 357 10;
#X text 48 67 coordinate input;
#X text 310 68 rotation angles in radians;
#X text 369 292 Ben Wesch \, 2024;
#X obj 74 90 inlet~;
#X obj 196 90 inlet~;
#X obj 278 46 loadbang;
#X obj 278 68 f \$1;
#X obj 278 90 inlet~;
#X text 118 91 x;
#X text 242 91 y;
#X text 323 89 z-rotation;
#X obj 89 172 cos~;
#X obj 196 222 *~;
#X obj 164 291 outlet~;
#X obj 106 222 *~;
#X obj 164 222 *~;
#X obj 74 222 *~;
#X obj 74 253 -~;
#X obj 164 253 +~;
#X obj 74 291 outlet~;
#X obj 179 172 cos~;
#X obj 179 151 -~ 0.25;
#X connect 3 0 15 0;
#X connect 3 0 16 0;
#X connect 4 0 12 0;
#X connect 4 0 14 0;
#X connect 5 0 6 0;
#X connect 6 0 7 0;
#X connect 7 0 11 0;
#X connect 7 0 21 0;
#X connect 11 0 12 1;
#X connect 11 0 16 1;
#X connect 12 0 18 1;
#X connect 14 0 17 1;
#X connect 15 0 18 0;
#X connect 16 0 17 0;
#X connect 17 0 19 0;
#X connect 18 0 13 0;
#X connect 20 0 14 1;
#X connect 20 0 15 1;
#X connect 21 0 20 0;
