#N canvas 155 104 738 544 10;
#X text 197 46 coordinate input;
#X text 102 70 x;
#X text 262 70 y;
#X text 401 70 z;
#X obj 62 69 inlet;
#X obj 223 69 inlet;
#X obj 362 69 inlet;
#X obj 502 69 inlet;
#X obj 208 371 *;
#X obj 240 371 *;
#X obj 338 371 *;
#X obj 370 371 *;
#X obj 62 470 outlet;
#X obj 208 470 outlet;
#X obj 338 470 outlet;
#X text 504 48 rotation angles in radians;
#X obj 567 218 sin;
#X obj 502 218 cos;
#X obj 502 191 t f f;
#X obj 62 101 t f b b;
#X obj 525 140 loadbang;
#X obj 208 163 t f f;
#X obj 347 163 t f f b;
#X text 547 68 x-rotation;
#X text 543 476 Ben Wesch \, 2024;
#X obj 208 392 -;
#X obj 347 139 f;
#X obj 208 139 f;
#X obj 338 392 +;
#X obj 525 164 f \$1;
#X connect 4 0 19 0;
#X connect 5 0 27 1;
#X connect 6 0 26 1;
#X connect 7 0 18 0;
#X connect 8 0 25 0;
#X connect 9 0 25 1;
#X connect 10 0 28 0;
#X connect 11 0 28 1;
#X connect 16 0 9 1;
#X connect 16 0 10 1;
#X connect 17 0 8 1;
#X connect 17 0 11 1;
#X connect 18 0 17 0;
#X connect 18 1 16 0;
#X connect 19 0 12 0;
#X connect 19 1 27 0;
#X connect 19 2 26 0;
#X connect 20 0 29 0;
#X connect 21 0 8 0;
#X connect 21 1 10 0;
#X connect 22 0 9 0;
#X connect 22 1 11 0;
#X connect 25 0 13 0;
#X connect 26 0 22 0;
#X connect 27 0 21 0;
#X connect 28 0 14 0;
#X connect 29 0 18 0;
