#N canvas 236 121 949 793 10;
#X obj 367 247 bang~;
#X obj 100 487 inlet~;
#X obj 547 332 pointer;
#X msg 586 263 clear;
#X msg 513 312 0 0;
#X obj 367 360 until;
#X obj 367 339 t f b;
#X obj 367 381 f;
#X obj 394 381 + 1;
#X msg 405 360 0;
#X obj 513 95 loadbang;
#X obj 540 138 f \$1;
#X obj 540 159 sel 0;
#X obj 367 318 f;
#X obj 482 312 f;
#X obj 99 655 array define \$0-data-x 64;
#X obj 99 676 array define \$0-data-y 64;
#X obj 513 116 t b b;
#X obj 540 201 s \$0-blocksize;
#X obj 742 95 r \$0-blocksize;
#X obj 382 95 r \$0-blocksize;
#X obj 367 140 array size \$0-data-x;
#X obj 367 161 array size \$0-data-y;
#X obj 742 137 block~;
#X obj 513 241 t b b b b;
#N canvas 647 566 604 202 \$0-path-template 0;
#X obj 67 105 struct \$0-path-template float x float y array \$0-data \$0-data-template, f 70;
#X obj 68 135 plot -e 0 \$0-data 0 1 0 0;
#X restore 100 598 pd \$0-path-template;
#N canvas 706 152 450 300 \$0-data-template 0;
#X obj 60 46 struct \$0-data-template float x float y;
#X restore 99 619 pd \$0-data-template;
#X obj 513 363 append \$0-path-template x y;
#N canvas 92 117 513 497 \$0-display 0;
#X coords -1 1 1 -1 140 140 2 100 100;
#X restore 100 100 pd \$0-display;
#X obj 586 284 s pd-\$0-display;
#X obj 547 284 f \$0;
#X msg 547 311 traverse pd-\$1-display \, bang;
#X obj 482 402 setsize \$0-path-template \$0-data;
#X obj 508 685 element \$0-path-template \$0-data;
#X obj 100 523 snake~ out 3;
#X obj 99 696 array define \$0-data-z 64;
#X obj 367 706 set \$0-data-template x y;
#X obj 367 402 t f f f f;
#X obj 367 181 array size \$0-data-z;
#X obj 460 657 /;
#X obj 401 686 *;
#X obj 367 686 *;
#X obj 300 474 unpack;
#X msg 540 180 1024;
#X obj 100 575 tabsend~ \$0-data-x;
#X obj 218 575 tabsend~ \$0-data-y;
#X obj 218 554 tabsend~ \$0-data-z;
#X obj 401 495 tabread \$0-data-z;
#X obj 460 615 + 6;
#X msg 460 636 6 \$1;
#X msg 742 116 set \$1 1 0.5;
#N canvas 92 117 450 300 rotate 0;
#X obj 38 85 f;
#X obj 38 223 outlet;
#X obj 79 85 + 1;
#X obj 38 151 * 6.28319;
#X obj 38 111 / 1000;
#X obj 110 85 mod 1000;
#X msg 38 191 -0.6 \$1;
#X obj 38 59 inlet;
#X connect 0 0 2 0;
#X connect 0 0 4 0;
#X connect 2 0 5 0;
#X connect 3 0 6 0;
#X connect 4 0 3 0;
#X connect 5 0 0 1;
#X connect 6 0 1 0;
#X connect 7 0 0 0;
#X restore 300 453 pd rotate;
#X text 480 522 rotate y;
#X text 480 592 rotate x;
#X obj 367 453 tabread \$0-data-y;
#X obj 384 474 tabread \$0-data-x;
#X obj 367 546 t b f;
#X obj 367 566 f;
#X text 481 556 y <--> x;
#X obj 367 283 t b b;
#X obj 367 522 rotate, f 17;
#X obj 367 592 rotate, f 16;
#X connect 0 0 59 0;
#X connect 1 0 34 0;
#X connect 2 0 27 2;
#X connect 3 0 29 0;
#X connect 4 0 27 0;
#X connect 5 0 7 0;
#X connect 6 0 5 0;
#X connect 6 1 9 0;
#X connect 7 0 8 0;
#X connect 7 0 37 0;
#X connect 8 0 7 1;
#X connect 9 0 7 1;
#X connect 10 0 17 0;
#X connect 11 0 12 0;
#X connect 12 0 43 0;
#X connect 12 1 18 0;
#X connect 13 0 6 0;
#X connect 14 0 32 0;
#X connect 17 0 24 0;
#X connect 17 1 11 0;
#X connect 19 0 50 0;
#X connect 20 0 14 1;
#X connect 20 0 13 1;
#X connect 20 0 21 0;
#X connect 20 0 22 0;
#X connect 20 0 38 0;
#X connect 24 0 14 0;
#X connect 24 1 4 0;
#X connect 24 2 30 0;
#X connect 24 3 3 0;
#X connect 27 0 32 1;
#X connect 27 0 33 1;
#X connect 30 0 31 0;
#X connect 31 0 2 0;
#X connect 33 0 36 2;
#X connect 34 0 44 0;
#X connect 34 1 45 0;
#X connect 34 2 46 0;
#X connect 37 0 54 0;
#X connect 37 1 55 0;
#X connect 37 2 47 0;
#X connect 37 3 33 0;
#X connect 39 0 40 1;
#X connect 39 0 41 1;
#X connect 40 0 36 1;
#X connect 41 0 36 0;
#X connect 42 0 61 3;
#X connect 42 1 60 3;
#X connect 43 0 18 0;
#X connect 47 0 60 2;
#X connect 48 0 49 0;
#X connect 49 0 39 0;
#X connect 50 0 23 0;
#X connect 51 0 42 0;
#X connect 54 0 60 0;
#X connect 55 0 60 1;
#X connect 56 0 57 0;
#X connect 56 1 61 1;
#X connect 57 0 61 0;
#X connect 59 0 13 0;
#X connect 59 1 51 0;
#X connect 60 0 56 0;
#X connect 60 1 57 1;
#X connect 60 2 61 2;
#X connect 61 0 41 0;
#X connect 61 1 40 0;
#X connect 61 2 48 0;
#X coords 0 -1 1 1 140 140 1 100 100;
