#N canvas 463 27 859 611 10;
#X obj 100 347 inlet~;
#X obj 100 368 tabsend~ \$0-data-y;
#X obj 577 332 pointer;
#X msg 616 263 clear;
#X msg 543 312 0 0;
#X obj 543 95 loadbang;
#X obj 570 138 f \$1;
#X obj 570 159 sel 0;
#X obj 510 312 f;
#X obj 99 478 array define \$0-data-y 64;
#X obj 543 116 t b b;
#X obj 570 201 s \$0-blocksize;
#X obj 385 95 r \$0-blocksize;
#X obj 452 215 r \$0-blocksize;
#X obj 307 281 array size \$0-data-y;
#X obj 543 241 t b b b b;
#N canvas 647 566 604 202 \$0-path-template 0;
#X obj 67 105 struct \$0-path-template float x float y array \$0-data \$0-data-template, f 70;
#X obj 68 135 plot -e 0 \$0-data 0 1 0 0 1;
#X restore 100 420 pd \$0-path-template;
#N canvas 706 152 450 300 \$0-data-template 0;
#X obj 60 46 struct \$0-data-template float y;
#X restore 99 441 pd \$0-data-template;
#X obj 543 363 append \$0-path-template x y;
#N canvas 92 117 513 497 \$0-display 0;
#X coords 0 -1 0 1 140 140 1;
#X restore 100 100 pd \$0-display;
#X obj 616 284 s pd-\$0-display;
#X obj 577 284 f \$0;
#X msg 577 311 traverse pd-\$1-display \, bang;
#X obj 510 439 setsize \$0-path-template \$0-data;
#X obj 385 137 block~;
#X msg 385 116 set \$1 1 0.25;
#X msg 570 180 256;
#X obj 307 417 bang~;
#X obj 307 477 array set -s \$0-path-template \$0-data -f \$0-data-template y;
#X obj 307 456 array get \$0-data-y;
#X obj 306 334 s pd-\$0-display;
#X msg 306 313 coords 0 -1 \$1 1 140 140 -1;
#X connect 0 0 1 0;
#X connect 2 0 18 2;
#X connect 3 0 20 0;
#X connect 4 0 18 0;
#X connect 5 0 10 0;
#X connect 6 0 7 0;
#X connect 7 0 26 0;
#X connect 7 1 11 0;
#X connect 8 0 23 0;
#X connect 10 0 15 0;
#X connect 10 1 6 0;
#X connect 12 0 25 0;
#X connect 13 0 8 1;
#X connect 13 0 14 0;
#X connect 13 0 31 0;
#X connect 15 0 8 0;
#X connect 15 1 4 0;
#X connect 15 2 21 0;
#X connect 15 3 3 0;
#X connect 18 0 23 1;
#X connect 18 0 28 2;
#X connect 21 0 22 0;
#X connect 22 0 2 0;
#X connect 25 0 24 0;
#X connect 26 0 11 0;
#X connect 27 0 29 0;
#X connect 29 0 28 0;
#X connect 31 0 30 0;
#X coords 0 -1 1 1 140 140 1 100 100;
