#N canvas 815 104 852 618 10;
#X obj 100 347 inlet~;
#X obj 547 332 pointer;
#X msg 586 263 clear;
#X msg 513 312 0 0;
#X obj 513 95 loadbang;
#X obj 540 138 f \$1;
#X obj 540 159 sel 0;
#X obj 482 312 f;
#X obj 99 481 array define \$0-data-x 64;
#X obj 99 502 array define \$0-data-y 64;
#X obj 513 116 t b b;
#X obj 540 201 s \$0-blocksize;
#X obj 682 95 r \$0-blocksize;
#X obj 382 95 r \$0-blocksize;
#X obj 367 140 array size \$0-data-x;
#X obj 367 161 array size \$0-data-y;
#X obj 682 137 block~;
#X obj 513 241 t b b b b;
#N canvas 647 566 604 202 \$0-path-template 0;
#X obj 67 105 struct \$0-path-template float x float y array \$0-data \$0-data-template, f 70;
#X obj 68 135 plot -e 0 \$0-data 0 1 0 0;
#X restore 100 424 pd \$0-path-template;
#N canvas 706 152 450 300 \$0-data-template 0;
#X obj 60 46 struct \$0-data-template float x float y;
#X restore 99 445 pd \$0-data-template;
#X obj 513 363 append \$0-path-template x y;
#N canvas 92 117 513 497 \$0-display 0;
#X coords -1 1 1 -1 140 140 2 100 100;
#X restore 100 100 pd \$0-display;
#X obj 586 284 s pd-\$0-display;
#X obj 547 284 f \$0;
#X msg 547 311 traverse pd-\$1-display \, bang;
#X obj 482 396 setsize \$0-path-template \$0-data;
#X msg 682 116 set \$1 1 0.25;
#X msg 540 180 256;
#X obj 100 368 tabsend~ \$0-data-x \$0-data-y;
#X obj 347 436 array get \$0-data-x;
#X obj 366 457 array get \$0-data-y;
#X obj 366 478 array set -s \$0-path-template \$0-data -f \$0-data-template y;
#X obj 347 499 array set -s \$0-path-template \$0-data -f \$0-data-template x;
#X obj 366 379 bang~;
#X connect 0 0 28 0;
#X connect 1 0 20 2;
#X connect 2 0 22 0;
#X connect 3 0 20 0;
#X connect 4 0 10 0;
#X connect 5 0 6 0;
#X connect 6 0 27 0;
#X connect 6 1 11 0;
#X connect 7 0 25 0;
#X connect 10 0 17 0;
#X connect 10 1 5 0;
#X connect 12 0 26 0;
#X connect 13 0 7 1;
#X connect 13 0 14 0;
#X connect 13 0 15 0;
#X connect 17 0 7 0;
#X connect 17 1 3 0;
#X connect 17 2 23 0;
#X connect 17 3 2 0;
#X connect 20 0 25 1;
#X connect 20 0 31 2;
#X connect 20 0 32 2;
#X connect 23 0 24 0;
#X connect 24 0 1 0;
#X connect 26 0 16 0;
#X connect 27 0 11 0;
#X connect 29 0 32 0;
#X connect 30 0 31 0;
#X connect 33 0 29 0;
#X connect 33 0 30 0;
#X coords 0 -1 1 1 140 140 1 100 100;
