#N struct 1092-path-template float x float y array 1092-data 1092-data-template;
#N struct 1092-data-template float x float y;
#N canvas 815 104 852 631 10;
#X obj 367 319 bang~;
#X obj 100 347 inlet~;
#X obj 100 418 tabsend~ \$0-data-x;
#X obj 100 383 snake~ out 2;
#X obj 220 418 tabsend~ \$0-data-y;
#X obj 547 332 pointer;
#X msg 586 263 clear;
#X msg 513 312 0 0;
#X obj 367 382 until;
#X obj 367 361 t f b;
#X obj 367 403 f;
#X obj 394 403 + 1;
#X msg 405 382 0;
#X obj 367 424 t f f f;
#X obj 513 95 loadbang;
#X obj 540 138 f \$1;
#X obj 540 159 sel 0;
#X obj 367 340 f;
#X obj 482 312 f;
#X obj 99 515 array define \$0-data-x 64;
#X obj 99 536 array define \$0-data-y 64;
#X obj 513 116 t b b;
#X obj 540 201 s \$0-blocksize;
#X obj 682 95 r \$0-blocksize;
#X obj 382 95 r \$0-blocksize;
#X obj 367 140 array size \$0-data-x;
#X obj 367 161 array size \$0-data-y;
#X obj 682 137 block~;
#X obj 513 241 t b b b b;
#N canvas 647 566 604 202 \$0-path-template 0;
#X obj 67 105 struct \$0-path-template float x float y array \$0-data \$0-data-template, f 70;
#X obj 68 135 plot -e 0 \$0-data 0 1 0 0;
#X restore 100 458 pd \$0-path-template;
#N canvas 706 152 450 300 \$0-data-template 0;
#X obj 60 46 struct \$0-data-template float x float y;
#X restore 99 479 pd \$0-data-template;
#X obj 367 538 set \$0-data-template x y;
#X obj 513 363 append \$0-path-template x y;
#N canvas 92 117 513 497 \$0-display 0;
#X scalar 1092-path-template 0 0 \; 0 0 \; 0 0 \; 0 0 \; 0 0 \; 0 0 \; 0 0 \; 0 0 \; 0 0 \; 0 0 \; 0 0 \; 0 0 \; 0 0 \; 0 0 \; 0 0 \; 0 0 \; 0 0 \; 0 0 \; 0 0 \; 0 0 \; 0 0 \; 0 0 \; 0 0 \; 0 0 \; 0 0 \; 0 0 \; 0 0 \; 0 0 \; 0 0 \; 0 0 \; 0 0 \; 0 0 \; 0 0 \; 0 0 \; 0 0 \; 0 0 \; 0 0 \; 0 0 \; 0 0 \; 0 0 \; 0 0 \; 0 0 \; 0 0 \; 0 0 \; 0 0 \; 0 0 \; 0 0 \; 0 0 \; 0 0 \; 0 0 \; 0 0 \; 0 0 \; 0 0 \; 0 0 \; 0 0 \; 0 0 \; 0 0 \; 0 0 \; 0 0 \; 0 0 \; 0 0 \; 0 0 \; 0 0 \; 0 0 \; 0 0 \; 0 0 \; 0 0 \; 0 0 \; 0 0 \; 0 0 \; 0 0 \; 0 0 \; 0 0 \; 0 0 \; 0 0 \; 0 0 \; 0 0 \; 0 0 \; 0 0 \; 0 0 \; 0 0 \; 0 0 \; 0 0 \; 0 0 \; 0 0 \; 0 0 \; 0 0 \; 0 0 \; 0 0 \; 0 0 \; 0 0 \; 0 0 \; 0 0 \; 0 0 \; 0 0 \; 0 0 \; 0 0 \; 0 0 \; 0 0 \; 0 0 \; 0 0 \; 0 0 \; 0 0 \; 0 0 \; 0 0 \; 0 0 \; 0 0 \; 0 0 \; 0 0 \; 0 0 \; 0 0 \; 0 0 \; 0 0 \; 0 0 \; 0 0 \; 0 0 \; 0 0 \; 0 0 \; 0 0 \; 0 0 \; 0 0 \; 0 0 \; 0 0 \; 0 0 \; 0 0 \; 0 0 \; 0 0 \; 0 0 \; 0 0 \; 0 0 \; 0 0 \; 0 0 \; 0 0 \; 0 0 \; 0 0 \; 0 0 \; 0 0 \; 0 0 \; 0 0 \; 0 0 \; 0 0 \; 0 0 \; 0 0 \; 0 0 \; 0 0 \; 0 0 \; 0 0 \; 0 0 \; 0 0 \; 0 0 \; 0 0 \; 0 0 \; 0 0 \; 0 0 \; 0 0 \; 0 0 \; 0 0 \; 0 0 \; 0 0 \; 0 0 \; 0 0 \; 0 0 \; 0 0 \; 0 0 \; 0 0 \; 0 0 \; 0 0 \; 0 0 \; 0 0 \; 0 0 \; 0 0 \; 0 0 \; 0 0 \; 0 0 \; 0 0 \; 0 0 \; 0 0 \; 0 0 \; 0 0 \; 0 0 \; 0 0 \; 0 0 \; 0 0 \; 0 0 \; 0 0 \; 0 0 \; 0 0 \; 0 0 \; 0 0 \; 0 0 \; 0 0 \; 0 0 \; 0 0 \; 0 0 \; 0 0 \; 0 0 \; 0 0 \; 0 0 \; 0 0 \; 0 0 \; 0 0 \; 0 0 \; 0 0 \; 0 0 \; 0 0 \; 0 0 \; 0 0 \; 0 0 \; 0 0 \; 0 0 \; 0 0 \; 0 0 \; 0 0 \; 0 0 \; 0 0 \; 0 0 \; 0 0 \; 0 0 \; 0 0 \; 0 0 \; 0 0 \; 0 0 \; 0 0 \; 0 0 \; 0 0 \; 0 0 \; 0 0 \; 0 0 \; 0 0 \; 0 0 \; 0 0 \; 0 0 \; 0 0 \; 0 0 \; 0 0 \; 0 0 \; 0 0 \; 0 0 \; 0 0 \; 0 0 \; 0 0 \; 0 0 \; 0 0 \; 0 0 \; 0 0 \; 0 0 \; 0 0 \; 0 0 \; 0 0 \; 0 0 \; 0 0 \; 0 0 \; 0 0 \; 0 0 \; 0 0 \; 0 0 \; 0 0 \; \;;
#X coords -1 1 1 -1 140 140 2 100 100;
#X restore 100 100 pd \$0-display;
#X obj 586 284 s pd-\$0-display;
#X obj 547 284 f \$0;
#X msg 547 311 traverse pd-\$1-display \, bang;
#X obj 482 402 setsize \$0-path-template \$0-data;
#X obj 508 517 element \$0-path-template \$0-data;
#X msg 682 116 set \$1 1 0.25;
#X msg 540 180 256;
#X obj 367 475 array get \$0-data-x 0 1;
#X obj 437 496 array get \$0-data-y 0 1;
#X connect 0 0 17 0;
#X connect 1 0 3 0;
#X connect 3 0 2 0;
#X connect 3 1 4 0;
#X connect 5 0 32 2;
#X connect 6 0 34 0;
#X connect 7 0 32 0;
#X connect 8 0 10 0;
#X connect 9 0 8 0;
#X connect 9 1 12 0;
#X connect 10 0 11 0;
#X connect 10 0 13 0;
#X connect 11 0 10 1;
#X connect 12 0 10 1;
#X connect 13 0 41 0;
#X connect 13 1 42 0;
#X connect 13 2 38 0;
#X connect 14 0 21 0;
#X connect 15 0 16 0;
#X connect 16 0 40 0;
#X connect 16 1 22 0;
#X connect 17 0 9 0;
#X connect 18 0 37 0;
#X connect 21 0 28 0;
#X connect 21 1 15 0;
#X connect 23 0 39 0;
#X connect 24 0 18 1;
#X connect 24 0 17 1;
#X connect 24 0 25 0;
#X connect 24 0 26 0;
#X connect 28 0 18 0;
#X connect 28 1 7 0;
#X connect 28 2 35 0;
#X connect 28 3 6 0;
#X connect 32 0 37 1;
#X connect 32 0 38 1;
#X connect 35 0 36 0;
#X connect 36 0 5 0;
#X connect 38 0 31 2;
#X connect 39 0 27 0;
#X connect 40 0 22 0;
#X connect 41 0 31 0;
#X connect 42 0 31 1;
#X coords 0 -1 1 1 140 140 1 100 100;
