#N canvas 476 163 787 666 10;
#X obj 367 247 bang~;
#X obj 134 300 inlet~;
#X obj 547 332 pointer;
#X msg 586 263 clear;
#X msg 513 312 0 0;
#X obj 513 95 loadbang;
#X obj 540 138 f \$1;
#X obj 540 159 sel 0;
#X obj 482 312 f;
#X obj 501 556 array define \$0-data-x 64;
#X obj 501 577 array define \$0-data-y 64;
#X obj 513 116 t b b;
#X obj 540 201 s \$0-blocksize;
#X obj 641 95 r \$0-blocksize;
#X obj 382 95 r \$0-blocksize;
#X obj 367 140 array size \$0-data-x;
#X obj 367 161 array size \$0-data-y;
#X obj 641 137 block~;
#X obj 513 241 t b b b b;
#N canvas 647 566 604 202 \$0-path-template 0;
#X obj 67 105 struct \$0-path-template float x float y array \$0-data \$0-data-template, f 70;
#X obj 68 135 plot -e 0 \$0-data 0 1 0 0;
#X restore 348 557 pd \$0-path-template;
#N canvas 706 152 450 300 \$0-data-template 0;
#X obj 60 46 struct \$0-data-template float x float y;
#X restore 347 578 pd \$0-data-template;
#X obj 513 363 append \$0-path-template x y;
#X obj 586 284 s pd-\$0-display;
#X obj 547 284 f \$0;
#X msg 547 311 traverse pd-\$1-display \, bang;
#X obj 482 402 setsize \$0-path-template \$0-data;
#X msg 540 180 1024;
#N canvas 92 117 450 300 rotate 0;
#X obj 38 85 f;
#X obj 38 223 outlet;
#X obj 79 85 + 1;
#X obj 38 59 inlet;
#X obj 110 85 mod 2000;
#X obj 38 111 / 2000;
#X connect 0 0 2 0;
#X connect 0 0 5 0;
#X connect 2 0 4 0;
#X connect 3 0 0 0;
#X connect 4 0 0 1;
#X connect 5 0 1 0;
#X restore 394 318 pd rotate;
#X obj 367 283 t b b;
#X obj 100 102 vsl 140 135 -0.25 0.25 0 0 \$0-vsl-s \$0-vsl-r x/scope3d 2 6 0 10 #ffffff #ffffff #000000 0 1;
#X obj 289 262 loadbang;
#X obj 289 304 s \$0-vsl-r;
#X obj 220 304 r \$0-vsl-s;
#X text 40 261 mouse rotation around x-axis with slider;
#N canvas 92 117 513 497 \$0-display 0;
#X coords -1 1 1 -1 140 140 2 100 100;
#X restore 100 100 pd \$0-display;
#X msg 641 116 set \$1 2 0.5;
#X obj 134 328 *~ 1.04;
#X text 77 397 y <--> x;
#X text 203 372 rotate y (order of input is y x z);
#X text 231 442 rotate x;
#X obj 134 372 rotate_2d~;
#X obj 163 442 rotate_2d~;
#X obj 134 349 snake~ out 3;
#X obj 220 465 +~ 6;
#X obj 220 485 pow~ -1;
#X obj 220 506 *~ 6;
#X obj 163 536 *~;
#X obj 134 536 *~;
#X obj 134 557 tabsend~ \$0-data-x;
#X obj 163 578 tabsend~ \$0-data-y;
#X obj 347 436 array get \$0-data-x;
#X obj 366 457 array get \$0-data-y;
#X obj 366 478 array set -s \$0-path-template \$0-data -f \$0-data-template y;
#X obj 347 499 array set -s \$0-path-template \$0-data -f \$0-data-template x;
#X msg 289 283 -0.1;
#X connect 0 0 28 0;
#X connect 1 0 36 0;
#X connect 2 0 21 2;
#X connect 3 0 22 0;
#X connect 4 0 21 0;
#X connect 5 0 11 0;
#X connect 6 0 7 0;
#X connect 7 0 26 0;
#X connect 7 1 12 0;
#X connect 8 0 25 0;
#X connect 11 0 18 0;
#X connect 11 1 6 0;
#X connect 13 0 35 0;
#X connect 14 0 8 1;
#X connect 14 0 15 0;
#X connect 14 0 16 0;
#X connect 18 0 8 0;
#X connect 18 1 4 0;
#X connect 18 2 23 0;
#X connect 18 3 3 0;
#X connect 21 0 25 1;
#X connect 21 0 52 2;
#X connect 21 0 53 2;
#X connect 23 0 24 0;
#X connect 24 0 2 0;
#X connect 26 0 12 0;
#X connect 27 0 40 2;
#X connect 28 0 50 0;
#X connect 28 0 51 0;
#X connect 28 1 27 0;
#X connect 30 0 54 0;
#X connect 32 0 41 2;
#X connect 35 0 17 0;
#X connect 36 0 42 0;
#X connect 40 0 47 0;
#X connect 40 1 41 1;
#X connect 41 0 46 0;
#X connect 41 1 43 0;
#X connect 42 0 40 0;
#X connect 42 1 41 0;
#X connect 42 2 40 1;
#X connect 43 0 44 0;
#X connect 44 0 45 0;
#X connect 45 0 46 1;
#X connect 45 0 47 1;
#X connect 46 0 49 0;
#X connect 47 0 48 0;
#X connect 50 0 53 0;
#X connect 51 0 52 0;
#X connect 54 0 31 0;
#X coords 0 -1 1 1 140 140 1 100 100;
