#N canvas 518 41 948 891 12;
#X obj 287 468 - 1;
#X obj 643 341 array size \$0-scale;
#X obj 583 286 list length;
#X obj 565 443 array set \$0-scale;
#X obj 204 565 /~;
#X obj 203 683 *~;
#X obj 72 565 /~;
#X obj 72 589 wrap~;
#X obj 72 613 *~;
#X obj 72 767 +~;
#X obj 73 816 outlet~;
#X obj 287 589 array get \$0-scale 0 1;
#X obj 221 589 wrap~;
#X obj 204 613 -~;
#X obj 496 254 t b l l;
#X obj 623 394 array size \$0-scale-smooth;
#X obj 623 370 + 3;
#X obj 542 473 array set \$0-scale-smooth 1;
#X obj 496 699 array get \$0-scale 0 1;
#X obj 496 723 array set \$0-scale-smooth 0;
#X obj 496 556 t b b;
#X obj 72 707 tabread4~ \$0-scale-smooth;
#X obj 603 518 t f f;
#X obj 540 643 array set \$0-scale-smooth;
#X obj 72 683 +~ 1;
#X obj 528 589 array get \$0-scale 0 2;
#X obj 603 541 - 1;
#X obj 528 667 array set \$0-scale-smooth;
#X obj 605 619 + 2;
#X obj 635 619 + 1;
#X text 554 253 scale input | last note is "octave" interval;
#X obj 72 64 inlet~;
#X obj 90 288 wrap~;
#X obj 73 318 -~;
#X obj 351 308 / 1000;
#X obj 351 332 pow -1;
#X obj 282 254 sel 0;
#X obj 496 816 outlet~;
#X text 102 319 signal to int;
#N canvas 537 173 518 653 args 1;
#N canvas 445 57 629 841 parse_named_or_positional_arguments 0;
#X obj 46 41 inlet;
#X obj 46 165 t l l, f 10;
#X obj 46 189 list length;
#X obj 46 213 until;
#X obj 46 257 list store;
#X obj 46 308 list split 1, f 48;
#X text 150 499 check if "-" is first symbol;
#X obj 107 451 list fromsymbol;
#X obj 107 475 t f;
#X obj 107 499 == 45;
#X obj 296 601 list store;
#X obj 296 625 list split 1;
#X obj 107 688 symbol;
#X obj 296 688 list prepend;
#X obj 296 712 list trim;
#X text 90 212 iterate through list;
#X text 52 330 forward first element and send back leftovers for next iteration cycle, f 70;
#X obj 46 786 outlet;
#X obj 46 369 route float symbol;
#X obj 107 427 t s s s, f 39;
#X obj 107 712 list trim;
#X text 107 667 flag-candidate;
#X text 297 580 value-candidate;
#X text 299 667 key-candidate;
#X obj 107 523 sel 0 1;
#X text 112 407 expecting symbols for parameter keys and flags;
#X text 165 523 trigger flag or kwarg;
#X obj 46 115 pdcontrol;
#X msg 46 91 args 0;
#X connect 0 0 28 0;
#X connect 1 0 2 0;
#X connect 1 1 4 1;
#X connect 2 0 3 0;
#X connect 3 0 4 0;
#X connect 4 0 5 0;
#X connect 5 0 18 0;
#X connect 5 1 4 1;
#X connect 5 1 10 1;
#X connect 7 0 8 0;
#X connect 8 0 9 0;
#X connect 9 0 24 0;
#X connect 10 0 11 0;
#X connect 11 0 13 0;
#X connect 11 1 4 1;
#X connect 12 0 20 0;
#X connect 13 0 14 0;
#X connect 14 0 17 0;
#X connect 18 0 17 0;
#X connect 18 1 19 0;
#X connect 19 0 7 0;
#X connect 19 1 12 1;
#X connect 19 2 13 1;
#X connect 20 0 17 0;
#X connect 24 0 12 0;
#X connect 24 1 10 0;
#X connect 27 0 1 0;
#X connect 28 0 27 0;
#X restore 142 123 pd parse_named_or_positional_arguments;
#X obj 345 399 f;
#X obj 119 59 loadbang;
#X text 347 377 portamento;
#X text 145 377 scale list;
#X msg 75 496 0 1;
#X obj 75 471 route bang;
#X obj 345 556 s \$0-portamento;
#X obj 75 556 s \$0-scale;
#X obj 119 83 t b b b;
#X obj 235 399 list;
#X obj 142 399 list prepend;
#X obj 75 446 list store;
#X obj 142 209 route float -portamento -slide -glide -p;
#X obj 75 291 t b b;
#X text 105 496 default to output=input;
#X connect 0 0 13 0;
#X connect 1 0 7 0;
#X connect 2 0 9 0;
#X connect 5 0 8 0;
#X connect 6 0 5 0;
#X connect 6 1 8 0;
#X connect 9 0 14 0;
#X connect 9 1 0 0;
#X connect 9 2 11 1;
#X connect 10 0 11 1;
#X connect 11 0 10 0;
#X connect 11 0 12 1;
#X connect 12 0 6 0;
#X connect 13 0 11 0;
#X connect 13 1 1 1;
#X connect 13 2 1 1;
#X connect 13 3 1 1;
#X connect 13 4 1 1;
#X connect 14 0 12 0;
#X connect 14 1 1 0;
#X restore 818 64 pd args;
#X obj 297 223 r \$0-portamento;
#X obj 496 223 r \$0-scale;
#X obj 111 129 route list slide portamento glide p;
#X obj 249 308 samplerate~;
#X obj 721 89 array define \$0-scale;
#X obj 672 114 array define \$0-scale-smooth;
#X obj 519 416 t b l l;
#X obj 583 310 t f f f f;
#X obj 519 443 f;
#X obj 197 411 -~;
#X obj 197 435 abs~;
#X text 234 436 distance to note;
#X obj 73 372 lop~;
#X text 781 814 Ben Wesch \, 2023;
#X connect 0 0 11 0;
#X connect 0 0 4 1;
#X connect 0 0 6 1;
#X connect 0 0 8 1;
#X connect 2 0 47 0;
#X connect 4 0 12 0;
#X connect 4 0 13 0;
#X connect 5 0 9 1;
#X connect 6 0 7 0;
#X connect 7 0 8 0;
#X connect 8 0 24 0;
#X connect 9 0 10 0;
#X connect 11 0 5 1;
#X connect 12 0 13 1;
#X connect 13 0 5 0;
#X connect 14 0 20 0;
#X connect 14 1 46 0;
#X connect 14 2 2 0;
#X connect 16 0 15 0;
#X connect 18 0 19 0;
#X connect 20 0 18 0;
#X connect 20 1 25 0;
#X connect 21 0 9 0;
#X connect 22 0 26 0;
#X connect 22 1 28 0;
#X connect 22 1 29 0;
#X connect 24 0 21 0;
#X connect 25 0 23 0;
#X connect 25 0 27 0;
#X connect 26 0 25 0;
#X connect 28 0 27 1;
#X connect 29 0 23 1;
#X connect 31 0 32 0;
#X connect 31 0 33 0;
#X connect 31 1 42 0;
#X connect 32 0 33 1;
#X connect 33 0 49 1;
#X connect 33 0 52 0;
#X connect 34 0 35 0;
#X connect 35 0 52 1;
#X connect 36 0 43 0;
#X connect 36 1 34 0;
#X connect 40 0 36 0;
#X connect 41 0 14 0;
#X connect 42 0 14 0;
#X connect 42 1 36 0;
#X connect 42 2 36 0;
#X connect 42 3 36 0;
#X connect 42 4 36 0;
#X connect 43 0 52 1;
#X connect 46 0 48 0;
#X connect 46 1 17 0;
#X connect 46 2 3 0;
#X connect 47 0 48 1;
#X connect 47 1 22 0;
#X connect 47 2 16 0;
#X connect 47 3 1 0;
#X connect 48 0 0 0;
#X connect 49 0 50 0;
#X connect 50 0 37 0;
#X connect 52 0 4 0;
#X connect 52 0 6 0;
#X connect 52 0 49 0;
